<?xml version="1.0" standalone="no"?><!DOCTYPE svg PUBLIC "-//W3C//DTD SVG 1.1//EN" "http://www.w3.org/Graphics/SVG/1.1/DTD/svg11.dtd"><svg t="1639042418665" class="icon" viewBox="0 0 1024 1024" version="1.1" xmlns="http://www.w3.org/2000/svg" p-id="9486" xmlns:xlink="http://www.w3.org/1999/xlink" width="200" height="200"><defs><style type="text/css"></style></defs><path d="M356.573 768.21h-255.83v-36.537h255.83v-73.55h-255.83v-36.535h255.83v-72.435h-255.83v-37.93h255.83v-71.279h-255.83v-36.536h255.83V183.317H27.631V1024h621.388l0.08-146.741-292.526-0.319V768.21zM795.203 0v219.295h219.334L795.203 0zM760.02 1.355H393.15v839.05h621.388V256.786l-254.516-0.16V1.356z m181.405 693.384H466.26v-35.181h475.166v35.181z m0-109.17H466.26v-37.053h475.166v37.054z m0-146.222v36.535H466.26v-36.535h475.166z" fill="#8a8a8a" p-id="9487"></path></svg>